<mxfile host="app.diagrams.net" modified="2023-11-13T19:00:35.187Z" agent="Mozilla/5.0 (Macintosh; Intel Mac OS X 10_15_7) AppleWebKit/537.36 (KHTML, like Gecko) Chrome/119.0.0.0 Safari/537.36" etag="xyYbaRe9tbwsL-xI9mKt" version="22.1.0" type="device">
  <diagram id="K80YQ36KAa0OmbvcGgRX" name="Page-1">
    <mxGraphModel dx="2261" dy="1991" grid="1" gridSize="10" guides="1" tooltips="1" connect="1" arrows="1" fold="1" page="1" pageScale="1" pageWidth="827" pageHeight="1169" math="0" shadow="0">
      <root>
        <mxCell id="0" />
        <mxCell id="1" parent="0" />
        <mxCell id="tGKUWsnCtgxajNB9y1TM-1" value="" style="rounded=0;whiteSpace=wrap;html=1;dashed=1;strokeColor=#3399FF;strokeWidth=1;" parent="1" vertex="1">
          <mxGeometry x="20" y="160" width="600" height="240" as="geometry" />
        </mxCell>
        <mxCell id="tGKUWsnCtgxajNB9y1TM-5" value="" style="verticalLabelPosition=bottom;html=1;verticalAlign=top;align=center;strokeColor=none;fillColor=#00BEF2;shape=mxgraph.azure.virtual_network;pointerEvents=1;" parent="1" vertex="1">
          <mxGeometry y="385" width="40" height="20" as="geometry" />
        </mxCell>
        <mxCell id="tGKUWsnCtgxajNB9y1TM-6" value="&amp;nbsp; &amp;nbsp;Main vnet" style="text;html=1;strokeColor=none;fillColor=none;align=center;verticalAlign=middle;whiteSpace=wrap;rounded=0;" parent="1" vertex="1">
          <mxGeometry x="21.52" y="375" width="78.48" height="30" as="geometry" />
        </mxCell>
        <mxCell id="tGKUWsnCtgxajNB9y1TM-23" style="edgeStyle=orthogonalEdgeStyle;rounded=0;orthogonalLoop=1;jettySize=auto;html=1;entryX=0.361;entryY=0.033;entryDx=0;entryDy=0;entryPerimeter=0;" parent="1" source="tGKUWsnCtgxajNB9y1TM-12" target="tGKUWsnCtgxajNB9y1TM-15" edge="1">
          <mxGeometry relative="1" as="geometry" />
        </mxCell>
        <mxCell id="tGKUWsnCtgxajNB9y1TM-15" value="" style="rounded=0;whiteSpace=wrap;html=1;dashed=1;strokeColor=#FF3333;" parent="1" vertex="1">
          <mxGeometry x="30" y="180" width="580" height="70" as="geometry" />
        </mxCell>
        <mxCell id="tGKUWsnCtgxajNB9y1TM-16" value="" style="image;aspect=fixed;html=1;points=[];align=center;fontSize=12;image=img/lib/azure2/networking/Private_Endpoint.svg;" parent="1" vertex="1">
          <mxGeometry x="380" y="191.5" width="40.36" height="37" as="geometry" />
        </mxCell>
        <mxCell id="tGKUWsnCtgxajNB9y1TM-17" value="" style="image;aspect=fixed;html=1;points=[];align=center;fontSize=12;image=img/lib/azure2/networking/Private_Endpoint.svg;" parent="1" vertex="1">
          <mxGeometry x="306.80999999999995" y="193" width="40.36" height="37" as="geometry" />
        </mxCell>
        <mxCell id="tGKUWsnCtgxajNB9y1TM-18" value="" style="image;aspect=fixed;html=1;points=[];align=center;fontSize=12;image=img/lib/azure2/networking/Private_Endpoint.svg;" parent="1" vertex="1">
          <mxGeometry x="228.8" y="195" width="38.18" height="35" as="geometry" />
        </mxCell>
        <mxCell id="tGKUWsnCtgxajNB9y1TM-19" value="" style="image;aspect=fixed;html=1;points=[];align=center;fontSize=12;image=img/lib/azure2/networking/Private_Endpoint.svg;" parent="1" vertex="1">
          <mxGeometry x="145.23" y="195" width="38.17" height="35" as="geometry" />
        </mxCell>
        <mxCell id="tGKUWsnCtgxajNB9y1TM-26" value="" style="group;whiteSpace=wrap;" parent="1" vertex="1" connectable="0">
          <mxGeometry x="122" y="55" width="320" height="65" as="geometry" />
        </mxCell>
        <mxCell id="tGKUWsnCtgxajNB9y1TM-20" value="" style="rounded=0;whiteSpace=wrap;html=1;" parent="tGKUWsnCtgxajNB9y1TM-26" vertex="1">
          <mxGeometry y="-20" width="320" height="85" as="geometry" />
        </mxCell>
        <mxCell id="tGKUWsnCtgxajNB9y1TM-11" value="container registry" style="image;aspect=fixed;html=1;points=[];align=center;fontSize=12;image=img/lib/azure2/containers/Container_Registries.svg;whiteSpace=wrap;" parent="tGKUWsnCtgxajNB9y1TM-26" vertex="1">
          <mxGeometry x="24.61" y="-5" width="36.79" height="33" as="geometry" />
        </mxCell>
        <mxCell id="tGKUWsnCtgxajNB9y1TM-12" value="shared key vault" style="image;sketch=0;aspect=fixed;html=1;points=[];align=center;fontSize=12;image=img/lib/mscae/Key_Vaults.svg;whiteSpace=wrap;" parent="tGKUWsnCtgxajNB9y1TM-26" vertex="1">
          <mxGeometry x="106.80000000000001" y="-9.5" width="36" height="37.5" as="geometry" />
        </mxCell>
        <mxCell id="tGKUWsnCtgxajNB9y1TM-13" value="AzureML workspace" style="image;aspect=fixed;html=1;points=[];align=center;fontSize=12;image=img/lib/azure2/ai_machine_learning/Machine_Learning.svg;whiteSpace=wrap;" parent="tGKUWsnCtgxajNB9y1TM-26" vertex="1">
          <mxGeometry x="187.33999999999997" y="-7.25" width="35.3" height="37.5" as="geometry" />
        </mxCell>
        <mxCell id="tGKUWsnCtgxajNB9y1TM-14" value="storage account" style="image;aspect=fixed;html=1;points=[];align=center;fontSize=12;image=img/lib/azure2/storage/Storage_Accounts.svg;whiteSpace=wrap;" parent="tGKUWsnCtgxajNB9y1TM-26" vertex="1">
          <mxGeometry x="260" y="-5" width="38.75" height="31" as="geometry" />
        </mxCell>
        <mxCell id="tGKUWsnCtgxajNB9y1TM-41" value="" style="rounded=0;whiteSpace=wrap;html=1;" parent="1" vertex="1">
          <mxGeometry x="510" y="-50" width="220" height="60" as="geometry" />
        </mxCell>
        <mxCell id="BC4mpr2HDKXJwUYemZhb-6" style="edgeStyle=orthogonalEdgeStyle;rounded=0;orthogonalLoop=1;jettySize=auto;html=1;entryX=1;entryY=0.757;entryDx=0;entryDy=0;entryPerimeter=0;" parent="1" source="tGKUWsnCtgxajNB9y1TM-28" target="tGKUWsnCtgxajNB9y1TM-55" edge="1">
          <mxGeometry relative="1" as="geometry" />
        </mxCell>
        <mxCell id="tGKUWsnCtgxajNB9y1TM-28" value="storage" style="image;aspect=fixed;html=1;points=[];align=center;fontSize=12;image=img/lib/azure2/storage/Storage_Accounts.svg;" parent="1" vertex="1">
          <mxGeometry x="670" y="-45" width="31.25" height="25" as="geometry" />
        </mxCell>
        <mxCell id="tGKUWsnCtgxajNB9y1TM-29" value="log analytics" style="image;aspect=fixed;html=1;points=[];align=center;fontSize=12;image=img/lib/azure2/management_governance/Log_Analytics_Workspaces.svg;" parent="1" vertex="1">
          <mxGeometry x="535.18" y="-50" width="30" height="30" as="geometry" />
        </mxCell>
        <mxCell id="tGKUWsnCtgxajNB9y1TM-30" value="App Insights" style="image;aspect=fixed;html=1;points=[];align=center;fontSize=12;image=img/lib/azure2/analytics/Endpoint_Analytics.svg;whiteSpace=wrap;" parent="1" vertex="1">
          <mxGeometry x="595" y="-45" width="25" height="25" as="geometry" />
        </mxCell>
        <mxCell id="tGKUWsnCtgxajNB9y1TM-35" value="" style="image;aspect=fixed;html=1;points=[];align=center;fontSize=12;image=img/lib/azure2/networking/Private_Endpoint.svg;" parent="1" vertex="1">
          <mxGeometry x="494.81999999999994" y="191.5" width="40.36" height="37" as="geometry" />
        </mxCell>
        <mxCell id="tGKUWsnCtgxajNB9y1TM-37" value="" style="group" parent="1" vertex="1" connectable="0">
          <mxGeometry x="500" y="61" width="120" height="60" as="geometry" />
        </mxCell>
        <mxCell id="tGKUWsnCtgxajNB9y1TM-32" value="" style="rounded=1;whiteSpace=wrap;html=1;strokeWidth=2;strokeColor=#66B2FF;" parent="tGKUWsnCtgxajNB9y1TM-37" vertex="1">
          <mxGeometry width="120" height="60" as="geometry" />
        </mxCell>
        <mxCell id="tGKUWsnCtgxajNB9y1TM-31" value="AMPLS" style="image;aspect=fixed;html=1;points=[];align=center;fontSize=12;image=img/lib/azure2/networking/Private_Link.svg;" parent="tGKUWsnCtgxajNB9y1TM-37" vertex="1">
          <mxGeometry x="38" y="8" width="33.82" height="31" as="geometry" />
        </mxCell>
        <mxCell id="tGKUWsnCtgxajNB9y1TM-46" value="" style="edgeStyle=orthogonalEdgeStyle;rounded=0;orthogonalLoop=1;jettySize=auto;html=1;" parent="1" source="tGKUWsnCtgxajNB9y1TM-31" edge="1">
          <mxGeometry relative="1" as="geometry">
            <mxPoint x="555" y="10" as="targetPoint" />
          </mxGeometry>
        </mxCell>
        <mxCell id="tGKUWsnCtgxajNB9y1TM-47" style="edgeStyle=orthogonalEdgeStyle;rounded=0;orthogonalLoop=1;jettySize=auto;html=1;entryX=0.473;entryY=1.017;entryDx=0;entryDy=0;entryPerimeter=0;" parent="1" source="tGKUWsnCtgxajNB9y1TM-32" target="tGKUWsnCtgxajNB9y1TM-41" edge="1">
          <mxGeometry relative="1" as="geometry">
            <mxPoint x="610" y="20" as="targetPoint" />
          </mxGeometry>
        </mxCell>
        <mxCell id="tGKUWsnCtgxajNB9y1TM-53" value="" style="edgeStyle=orthogonalEdgeStyle;rounded=0;orthogonalLoop=1;jettySize=auto;html=1;" parent="1" edge="1">
          <mxGeometry relative="1" as="geometry">
            <mxPoint x="325" y="120" as="sourcePoint" />
            <mxPoint x="325" y="180" as="targetPoint" />
          </mxGeometry>
        </mxCell>
        <mxCell id="tGKUWsnCtgxajNB9y1TM-55" value="" style="image;aspect=fixed;html=1;points=[];align=center;fontSize=12;image=img/lib/azure2/networking/Private_Endpoint.svg;" parent="1" vertex="1">
          <mxGeometry x="559.64" y="191.5" width="40.36" height="37" as="geometry" />
        </mxCell>
        <mxCell id="tGKUWsnCtgxajNB9y1TM-60" value="&lt;font style=&quot;font-size: 10px;&quot;&gt;Azure Private DNS&lt;/font&gt;" style="image;aspect=fixed;html=1;points=[];align=center;fontSize=12;image=img/lib/azure2/networking/DNS_Zones.svg;" parent="1" vertex="1">
          <mxGeometry x="545" y="340" width="30" height="30" as="geometry" />
        </mxCell>
        <mxCell id="tGKUWsnCtgxajNB9y1TM-68" value="" style="line;strokeWidth=2;fillColor=#007FFF;align=left;verticalAlign=middle;spacingTop=-1;spacingLeft=3;spacingRight=3;rotatable=0;labelPosition=right;points=[];portConstraint=eastwest;strokeColor=#6c8ebf;dashed=1;" parent="1" vertex="1">
          <mxGeometry x="-170" y="489" width="960" height="8" as="geometry" />
        </mxCell>
        <mxCell id="tGKUWsnCtgxajNB9y1TM-69" value="AI Model Manager" style="rounded=0;whiteSpace=wrap;html=1;" parent="1" vertex="1">
          <mxGeometry x="-60" y="562" width="120" height="60" as="geometry" />
        </mxCell>
        <mxCell id="tGKUWsnCtgxajNB9y1TM-70" value="AI Model Monitor" style="rounded=0;whiteSpace=wrap;html=1;" parent="1" vertex="1">
          <mxGeometry x="600" y="559" width="120" height="60" as="geometry" />
        </mxCell>
        <mxCell id="tGKUWsnCtgxajNB9y1TM-75" value="" style="group" parent="1" vertex="1" connectable="0">
          <mxGeometry x="-100" y="-40" width="190" height="68" as="geometry" />
        </mxCell>
        <mxCell id="tGKUWsnCtgxajNB9y1TM-66" value="" style="rounded=0;whiteSpace=wrap;html=1;" parent="tGKUWsnCtgxajNB9y1TM-75" vertex="1">
          <mxGeometry width="190" height="68" as="geometry" />
        </mxCell>
        <mxCell id="tGKUWsnCtgxajNB9y1TM-64" value="Iot Hub" style="image;aspect=fixed;html=1;points=[];align=center;fontSize=12;image=img/lib/azure2/iot/IoT_Hub.svg;" parent="tGKUWsnCtgxajNB9y1TM-75" vertex="1">
          <mxGeometry x="118.75" y="7" width="33" height="33" as="geometry" />
        </mxCell>
        <mxCell id="tGKUWsnCtgxajNB9y1TM-65" value="Eventhub" style="image;aspect=fixed;html=1;points=[];align=center;fontSize=12;image=img/lib/azure2/iot/Event_Hubs.svg;" parent="tGKUWsnCtgxajNB9y1TM-75" vertex="1">
          <mxGeometry x="11.88" y="11" width="32.39" height="29" as="geometry" />
        </mxCell>
        <mxCell id="tGKUWsnCtgxajNB9y1TM-79" value="MI" style="image;aspect=fixed;html=1;points=[];align=center;fontSize=12;image=img/lib/azure2/identity/Managed_Identities.svg;" parent="tGKUWsnCtgxajNB9y1TM-75" vertex="1">
          <mxGeometry x="69" y="19" width="30.91" height="30" as="geometry" />
        </mxCell>
        <mxCell id="tGKUWsnCtgxajNB9y1TM-76" value="" style="image;aspect=fixed;html=1;points=[];align=center;fontSize=12;image=img/lib/azure2/networking/Virtual_Networks.svg;" parent="1" vertex="1">
          <mxGeometry x="21.52" y="243" width="28.48" height="17" as="geometry" />
        </mxCell>
        <mxCell id="tGKUWsnCtgxajNB9y1TM-77" value="" style="image;aspect=fixed;html=1;points=[];align=center;fontSize=12;image=img/lib/azure2/networking/Private_Endpoint.svg;" parent="1" vertex="1">
          <mxGeometry x="60" y="197.5" width="35.44" height="32.5" as="geometry" />
        </mxCell>
        <mxCell id="tGKUWsnCtgxajNB9y1TM-78" style="edgeStyle=orthogonalEdgeStyle;rounded=0;orthogonalLoop=1;jettySize=auto;html=1;entryX=0.524;entryY=-0.086;entryDx=0;entryDy=0;entryPerimeter=0;" parent="1" source="tGKUWsnCtgxajNB9y1TM-64" target="tGKUWsnCtgxajNB9y1TM-77" edge="1">
          <mxGeometry relative="1" as="geometry" />
        </mxCell>
        <mxCell id="tGKUWsnCtgxajNB9y1TM-96" value="" style="rounded=0;whiteSpace=wrap;html=1;fillColor=#E6E6E6;" parent="1" vertex="1">
          <mxGeometry x="-270" y="-5" width="60" height="410" as="geometry" />
        </mxCell>
        <mxCell id="tGKUWsnCtgxajNB9y1TM-98" value="&lt;font style=&quot;font-size: 18px;&quot;&gt;Azure&amp;nbsp;&lt;br&gt;Cloud&lt;br&gt;Layer&lt;/font&gt;" style="text;html=1;strokeColor=none;fillColor=none;align=center;verticalAlign=middle;whiteSpace=wrap;rounded=0;" parent="1" vertex="1">
          <mxGeometry x="-270" y="154.5" width="60" height="30" as="geometry" />
        </mxCell>
        <mxCell id="tGKUWsnCtgxajNB9y1TM-99" value="" style="rounded=0;whiteSpace=wrap;html=1;fillColor=#E6E6E6;" parent="1" vertex="1">
          <mxGeometry x="-270" y="510" width="60" height="150" as="geometry" />
        </mxCell>
        <mxCell id="tGKUWsnCtgxajNB9y1TM-100" value="IT&amp;nbsp;&lt;br style=&quot;font-size: 18px;&quot;&gt;Layer" style="text;html=1;strokeColor=none;fillColor=none;align=center;verticalAlign=middle;whiteSpace=wrap;rounded=0;fontSize=18;" parent="1" vertex="1">
          <mxGeometry x="-270" y="567" width="60" height="30" as="geometry" />
        </mxCell>
        <mxCell id="WVAurJi560WbZtB7paKy-1" value="" style="group" parent="1" vertex="1" connectable="0">
          <mxGeometry x="53" y="263" width="259" height="100" as="geometry" />
        </mxCell>
        <mxCell id="tGKUWsnCtgxajNB9y1TM-4" value="" style="rounded=0;whiteSpace=wrap;html=1;dashed=1;strokeColor=#FF3333;" parent="WVAurJi560WbZtB7paKy-1" vertex="1">
          <mxGeometry x="19" y="10" width="240" height="80" as="geometry" />
        </mxCell>
        <mxCell id="tGKUWsnCtgxajNB9y1TM-2" value="" style="image;aspect=fixed;html=1;points=[];align=center;fontSize=12;image=img/lib/azure2/compute/VM_Scale_Sets.svg;" parent="WVAurJi560WbZtB7paKy-1" vertex="1">
          <mxGeometry x="81" y="16" width="39" height="39" as="geometry" />
        </mxCell>
        <mxCell id="tGKUWsnCtgxajNB9y1TM-3" value="" style="image;aspect=fixed;html=1;points=[];align=center;fontSize=12;image=img/lib/azure2/compute/VM_Scale_Sets.svg;" parent="WVAurJi560WbZtB7paKy-1" vertex="1">
          <mxGeometry x="150" y="16" width="39" height="39" as="geometry" />
        </mxCell>
        <mxCell id="tGKUWsnCtgxajNB9y1TM-7" value="training&lt;br&gt;subnet" style="text;html=1;strokeColor=none;fillColor=none;align=center;verticalAlign=middle;whiteSpace=wrap;rounded=0;" parent="WVAurJi560WbZtB7paKy-1" vertex="1">
          <mxGeometry x="21.090000000000003" y="60" width="60" height="30" as="geometry" />
        </mxCell>
        <mxCell id="tGKUWsnCtgxajNB9y1TM-9" value="" style="image;aspect=fixed;html=1;points=[];align=center;fontSize=12;image=img/lib/azure2/networking/Virtual_Networks.svg;" parent="WVAurJi560WbZtB7paKy-1" vertex="1">
          <mxGeometry y="80" width="33.5" height="20" as="geometry" />
        </mxCell>
        <mxCell id="tGKUWsnCtgxajNB9y1TM-10" value="NSG" style="image;aspect=fixed;html=1;points=[];align=center;fontSize=12;image=img/lib/azure2/networking/Network_Security_Groups.svg;" parent="WVAurJi560WbZtB7paKy-1" vertex="1">
          <mxGeometry x="222.64" y="35" width="24.71" height="30" as="geometry" />
        </mxCell>
        <mxCell id="tGKUWsnCtgxajNB9y1TM-101" value="&lt;font style=&quot;font-size: 11px;&quot;&gt;compute clusters&lt;/font&gt;" style="text;html=1;strokeColor=none;fillColor=none;align=center;verticalAlign=middle;whiteSpace=wrap;rounded=0;" parent="WVAurJi560WbZtB7paKy-1" vertex="1">
          <mxGeometry x="120" y="60" width="60" height="30" as="geometry" />
        </mxCell>
        <mxCell id="WVAurJi560WbZtB7paKy-2" value="Integration subnet" style="text;html=1;strokeColor=none;fillColor=none;align=center;verticalAlign=middle;whiteSpace=wrap;rounded=0;" parent="1" vertex="1">
          <mxGeometry x="50" y="228.5" width="110" height="30" as="geometry" />
        </mxCell>
        <mxCell id="WVAurJi560WbZtB7paKy-4" value="" style="rounded=0;whiteSpace=wrap;html=1;dashed=1;strokeColor=#FF3333;" parent="1" vertex="1">
          <mxGeometry x="331.5" y="273" width="120" height="60" as="geometry" />
        </mxCell>
        <mxCell id="WVAurJi560WbZtB7paKy-6" value="GatewaySubnet" style="text;html=1;strokeColor=none;fillColor=none;align=center;verticalAlign=middle;whiteSpace=wrap;rounded=0;" parent="1" vertex="1">
          <mxGeometry x="350" y="287" width="89" height="30" as="geometry" />
        </mxCell>
        <mxCell id="WVAurJi560WbZtB7paKy-8" value="" style="image;aspect=fixed;html=1;points=[];align=center;fontSize=12;image=img/lib/azure2/networking/Virtual_Networks.svg;" parent="1" vertex="1">
          <mxGeometry x="320" y="325" width="26.8" height="16" as="geometry" />
        </mxCell>
        <mxCell id="WVAurJi560WbZtB7paKy-9" value="VPN Gateway" style="image;aspect=fixed;html=1;points=[];align=center;fontSize=12;image=img/lib/azure2/networking/Virtual_Network_Gateways.svg;" parent="1" vertex="1">
          <mxGeometry x="280" y="370" width="37.68" height="50" as="geometry" />
        </mxCell>
        <mxCell id="WVAurJi560WbZtB7paKy-12" style="edgeStyle=orthogonalEdgeStyle;rounded=0;orthogonalLoop=1;jettySize=auto;html=1;entryX=0.845;entryY=0;entryDx=0;entryDy=0;entryPerimeter=0;exitX=0.45;exitY=1.008;exitDx=0;exitDy=0;exitPerimeter=0;" parent="1" source="tGKUWsnCtgxajNB9y1TM-32" target="tGKUWsnCtgxajNB9y1TM-15" edge="1">
          <mxGeometry relative="1" as="geometry">
            <mxPoint x="555" y="130" as="sourcePoint" />
          </mxGeometry>
        </mxCell>
        <mxCell id="WVAurJi560WbZtB7paKy-13" value="" style="rounded=0;whiteSpace=wrap;html=1;dashed=1;strokeColor=#3399FF;" parent="1" vertex="1">
          <mxGeometry x="730" y="210" width="170" height="160" as="geometry" />
        </mxCell>
        <mxCell id="WVAurJi560WbZtB7paKy-14" value="" style="verticalLabelPosition=bottom;html=1;verticalAlign=top;align=center;strokeColor=none;fillColor=#00BEF2;shape=mxgraph.azure.virtual_network;pointerEvents=1;" parent="1" vertex="1">
          <mxGeometry x="710" y="360" width="40" height="20" as="geometry" />
        </mxCell>
        <mxCell id="WVAurJi560WbZtB7paKy-15" value="Runner Vnet" style="text;html=1;strokeColor=none;fillColor=none;align=center;verticalAlign=middle;whiteSpace=wrap;rounded=0;" parent="1" vertex="1">
          <mxGeometry x="730" y="345" width="80" height="30" as="geometry" />
        </mxCell>
        <mxCell id="WVAurJi560WbZtB7paKy-16" value="" style="shape=flexArrow;endArrow=classic;startArrow=classic;html=1;rounded=0;entryX=0;entryY=0.5;entryDx=0;entryDy=0;fillColor=#3399FF;strokeColor=none;" parent="1" target="WVAurJi560WbZtB7paKy-13" edge="1">
          <mxGeometry width="100" height="100" relative="1" as="geometry">
            <mxPoint x="620" y="290" as="sourcePoint" />
            <mxPoint x="720" y="290" as="targetPoint" />
          </mxGeometry>
        </mxCell>
        <mxCell id="WVAurJi560WbZtB7paKy-23" value="VNET Peering" style="text;html=1;align=center;verticalAlign=middle;resizable=0;points=[];autosize=1;strokeColor=none;fillColor=none;" parent="1" vertex="1">
          <mxGeometry x="630" y="304" width="100" height="30" as="geometry" />
        </mxCell>
        <mxCell id="WVAurJi560WbZtB7paKy-26" value="" style="image;aspect=fixed;html=1;points=[];align=center;fontSize=12;image=img/lib/azure2/compute/VM_Scale_Sets.svg;" parent="1" vertex="1">
          <mxGeometry x="764" y="236" width="68" height="68" as="geometry" />
        </mxCell>
        <mxCell id="WVAurJi560WbZtB7paKy-28" value="Self-hosted&amp;nbsp; Agents" style="text;html=1;strokeColor=none;fillColor=none;align=center;verticalAlign=middle;whiteSpace=wrap;rounded=0;" parent="1" vertex="1">
          <mxGeometry x="759" y="310" width="101" height="30" as="geometry" />
        </mxCell>
        <mxCell id="WVAurJi560WbZtB7paKy-30" style="edgeStyle=orthogonalEdgeStyle;rounded=0;orthogonalLoop=1;jettySize=auto;html=1;entryX=1.012;entryY=0.409;entryDx=0;entryDy=0;entryPerimeter=0;" parent="1" source="WVAurJi560WbZtB7paKy-29" target="WVAurJi560WbZtB7paKy-13" edge="1">
          <mxGeometry relative="1" as="geometry" />
        </mxCell>
        <mxCell id="WVAurJi560WbZtB7paKy-29" value="Azure Pipelines" style="image;sketch=0;aspect=fixed;html=1;points=[];align=center;fontSize=12;image=img/lib/mscae/Azure_Pipelines.svg;" parent="1" vertex="1">
          <mxGeometry x="980" y="250" width="50" height="50" as="geometry" />
        </mxCell>
        <mxCell id="WVAurJi560WbZtB7paKy-34" value="" style="edgeStyle=orthogonalEdgeStyle;rounded=0;orthogonalLoop=1;jettySize=auto;html=1;" parent="1" edge="1">
          <mxGeometry relative="1" as="geometry">
            <mxPoint x="164" y="120" as="sourcePoint" />
            <mxPoint x="164" y="180" as="targetPoint" />
          </mxGeometry>
        </mxCell>
        <mxCell id="WVAurJi560WbZtB7paKy-35" style="edgeStyle=orthogonalEdgeStyle;rounded=0;orthogonalLoop=1;jettySize=auto;html=1;entryX=0.641;entryY=0.007;entryDx=0;entryDy=0;entryPerimeter=0;exitX=0.875;exitY=1.006;exitDx=0;exitDy=0;exitPerimeter=0;" parent="1" source="tGKUWsnCtgxajNB9y1TM-20" target="tGKUWsnCtgxajNB9y1TM-15" edge="1">
          <mxGeometry relative="1" as="geometry">
            <mxPoint x="402" y="130" as="sourcePoint" />
          </mxGeometry>
        </mxCell>
        <mxCell id="WVAurJi560WbZtB7paKy-36" value="" style="image;aspect=fixed;perimeter=ellipsePerimeter;html=1;align=center;shadow=0;dashed=0;spacingTop=3;image=img/lib/active_directory/tunnel.svg;direction=south;" parent="1" vertex="1">
          <mxGeometry x="-4" y="470" width="10" height="50" as="geometry" />
        </mxCell>
        <mxCell id="WVAurJi560WbZtB7paKy-38" value="" style="image;aspect=fixed;perimeter=ellipsePerimeter;html=1;align=center;shadow=0;dashed=0;spacingTop=3;image=img/lib/active_directory/tunnel.svg;direction=south;" parent="1" vertex="1">
          <mxGeometry x="655" y="470" width="10" height="50" as="geometry" />
        </mxCell>
        <mxCell id="WVAurJi560WbZtB7paKy-42" value="" style="endArrow=none;html=1;rounded=0;entryX=1;entryY=0.5;entryDx=0;entryDy=0;" parent="1" target="WVAurJi560WbZtB7paKy-36" edge="1">
          <mxGeometry width="50" height="50" relative="1" as="geometry">
            <mxPoint x="0.5" y="559" as="sourcePoint" />
            <mxPoint x="0.5" y="529" as="targetPoint" />
          </mxGeometry>
        </mxCell>
        <mxCell id="WVAurJi560WbZtB7paKy-43" value="" style="endArrow=none;html=1;rounded=0;exitX=0.5;exitY=0;exitDx=0;exitDy=0;" parent="1" source="tGKUWsnCtgxajNB9y1TM-70" edge="1">
          <mxGeometry width="50" height="50" relative="1" as="geometry">
            <mxPoint x="660" y="550" as="sourcePoint" />
            <mxPoint x="659.5" y="522" as="targetPoint" />
          </mxGeometry>
        </mxCell>
        <mxCell id="WVAurJi560WbZtB7paKy-48" value="" style="endArrow=classic;html=1;rounded=0;exitX=0;exitY=0.5;exitDx=0;exitDy=0;" parent="1" source="WVAurJi560WbZtB7paKy-36" edge="1">
          <mxGeometry width="50" height="50" relative="1" as="geometry">
            <mxPoint x="40" y="470" as="sourcePoint" />
            <mxPoint x="270" y="410" as="targetPoint" />
          </mxGeometry>
        </mxCell>
        <mxCell id="WVAurJi560WbZtB7paKy-49" value="" style="endArrow=classic;html=1;rounded=0;exitX=0;exitY=0.75;exitDx=0;exitDy=0;" parent="1" source="WVAurJi560WbZtB7paKy-38" edge="1">
          <mxGeometry width="50" height="50" relative="1" as="geometry">
            <mxPoint x="650" y="470" as="sourcePoint" />
            <mxPoint x="330" y="420" as="targetPoint" />
          </mxGeometry>
        </mxCell>
        <mxCell id="WVAurJi560WbZtB7paKy-50" value="VPN Connection" style="text;html=1;align=center;verticalAlign=middle;resizable=0;points=[];autosize=1;strokeColor=none;fillColor=none;" parent="1" vertex="1">
          <mxGeometry x="73.4" y="450" width="110" height="30" as="geometry" />
        </mxCell>
        <mxCell id="WVAurJi560WbZtB7paKy-51" value="VPN Connection" style="text;html=1;align=center;verticalAlign=middle;resizable=0;points=[];autosize=1;strokeColor=none;fillColor=none;" parent="1" vertex="1">
          <mxGeometry x="420.36" y="450" width="110" height="30" as="geometry" />
        </mxCell>
        <mxCell id="iNMHTu9xGROoDjezT_AM-2" value="" style="rounded=0;whiteSpace=wrap;html=1;dashed=1;strokeColor=#FF3333;" vertex="1" parent="1">
          <mxGeometry x="473.82" y="272" width="120" height="60" as="geometry" />
        </mxCell>
        <mxCell id="WVAurJi560WbZtB7paKy-52" value="&lt;b&gt;&lt;font style=&quot;font-size: 17px;&quot;&gt;Public Access Disabled&lt;/font&gt;&lt;/b&gt;" style="text;html=1;strokeColor=none;fillColor=none;align=center;verticalAlign=middle;whiteSpace=wrap;rounded=0;" parent="1" vertex="1">
          <mxGeometry x="194" y="-30" width="200" height="30" as="geometry" />
        </mxCell>
        <mxCell id="iNMHTu9xGROoDjezT_AM-3" value="" style="image;aspect=fixed;html=1;points=[];align=center;fontSize=12;image=img/lib/azure2/networking/Virtual_Networks.svg;" vertex="1" parent="1">
          <mxGeometry x="463.2" y="324" width="26.8" height="16" as="geometry" />
        </mxCell>
        <mxCell id="WVAurJi560WbZtB7paKy-5" value="&lt;font style=&quot;font-size: 10px;&quot;&gt;Private DNS Resolver&lt;/font&gt;" style="image;aspect=fixed;html=1;points=[];align=center;fontSize=12;image=img/lib/azure2/networking/DNS_Private_Resolver.svg;" parent="1" vertex="1">
          <mxGeometry x="516.16" y="275" width="39.67" height="35" as="geometry" />
        </mxCell>
      </root>
    </mxGraphModel>
  </diagram>
</mxfile>
